<svg xmlns="http://www.w3.org/2000/svg" viewBox="0 0 19.18 19.18"><defs><style>.cls-1{fill:#fff;}</style></defs><g id="Layer_2" data-name="Layer 2"><g id="Layer_1-2" data-name="Layer 1"><path class="cls-1" d="M9.59,1.73c2.56,0,2.87,0,3.88.05a5.58,5.58,0,0,1,1.78.33,3,3,0,0,1,1.1.72,3,3,0,0,1,.72,1.1,5.33,5.33,0,0,1,.33,1.79c.05,1,.06,1.31.06,3.87s0,2.87-.06,3.88a5.31,5.31,0,0,1-.33,1.78,3.22,3.22,0,0,1-1.82,1.82,5.31,5.31,0,0,1-1.78.33c-1,.05-1.32.06-3.88.06s-2.86,0-3.87-.06a5.33,5.33,0,0,1-1.79-.33,3,3,0,0,1-1.1-.72,3,3,0,0,1-.72-1.1,5.58,5.58,0,0,1-.33-1.78c0-1-.05-1.32-.05-3.88s0-2.86.05-3.87a5.6,5.6,0,0,1,.33-1.79A3.22,3.22,0,0,1,3.93,2.11a5.6,5.6,0,0,1,1.79-.33c1,0,1.31-.05,3.87-.05M9.59,0C7,0,6.66,0,5.64.06A7.09,7.09,0,0,0,3.31.5,4.94,4.94,0,0,0,.5,3.31,7.09,7.09,0,0,0,.06,5.64C0,6.66,0,7,0,9.59s0,2.93.06,4A7,7,0,0,0,.5,15.87a4.72,4.72,0,0,0,1.11,1.7,4.55,4.55,0,0,0,1.7,1.11,7.06,7.06,0,0,0,2.33.45c1,0,1.35.05,4,.05s2.93,0,4-.05a7,7,0,0,0,2.32-.45,4.94,4.94,0,0,0,2.81-2.81,7,7,0,0,0,.45-2.32c0-1,.05-1.35.05-4s0-2.93-.05-3.95a7.06,7.06,0,0,0-.45-2.33,4.55,4.55,0,0,0-1.11-1.7A4.72,4.72,0,0,0,15.87.5,7,7,0,0,0,13.55.06c-1,0-1.35-.06-4-.06Z"/><path class="cls-1" d="M9.59,4.67a4.93,4.93,0,1,0,4.93,4.92A4.92,4.92,0,0,0,9.59,4.67Zm0,8.12a3.2,3.2,0,1,1,3.2-3.2A3.2,3.2,0,0,1,9.59,12.79Z"/><circle class="cls-1" cx="14.71" cy="4.47" r="1.15"/></g></g></svg>