<svg xmlns="http://www.w3.org/2000/svg" viewBox="0 0 250.13 72.39"><defs><style>.cls-1{fill:#fff;}</style></defs><g id="Layer_2" data-name="Layer 2"><g id="Layer_1-2" data-name="Layer 1"><path class="cls-1" d="M85.06,53.36c-15.7,0-26.24-12.31-26.24-26.61S69.51,0,85.21,0s26.23,12.31,26.23,26.61S100.76,53.36,85.06,53.36Zm0-48c-11.79,0-20.19,9.43-20.19,21.23S73.42,48,85.21,48s20.19-9.44,20.19-21.23S96.85,5.38,85.06,5.38Z"/><path class="cls-1" d="M170.31,52.47l-15-20H140.61v20h-5.83V.88H157c11.35,0,18.64,6.12,18.64,15.41,0,8.62-5.89,13.63-14,15.11l15.85,21.07ZM156.53,6.26H140.61V27.19h15.84c7.74,0,13.27-4,13.27-10.68C169.72,10.1,164.85,6.26,156.53,6.26Z"/><polygon class="cls-1" points="5.82 31.69 5.82 0.89 0 0.89 0 52.47 5.82 52.47 5.82 38.62 5.82 38.62 5.82 31.69 5.82 31.69"/><polygon class="cls-1" points="20.86 23.44 42.97 0.89 35.45 0.89 11.46 25.83 11.46 32.91 16.8 27.49 36.63 52.47 43.92 52.47 20.86 23.44"/><polygon class="cls-1" points="226.62 0.52 221.16 0.52 197.66 52.47 203.62 52.47 207.98 42.76 212.03 33.61 212.03 33.61 223.82 7.3 235.54 33.61 218.16 33.61 215.86 38.84 237.82 38.84 243.86 52.47 250.13 52.47 226.62 0.52"/><path class="cls-1" d="M141.59,65.33a2.24,2.24,0,0,1-1.46,2.15c1.09.33,2,1,2,2.23,0,1.59-1.33,2.53-3.34,2.53h-4.09V63h3.92C140.4,63,141.59,63.93,141.59,65.33Zm-1.06.15c0-.92-.72-1.51-2-1.51h-2.8v3.17h2.72C139.67,67.14,140.53,66.57,140.53,65.48Zm.52,4.17c0-1-.84-1.59-2.45-1.59h-2.9V71.3h3.09C140.18,71.3,141.05,70.69,141.05,69.65Z"/><path class="cls-1" d="M148.22,72.24h-1.05V68.6L143.34,63h1.27l3.1,4.61L150.84,63h1.21l-3.83,5.55Z"/><path class="cls-1" d="M162.18,72.24h-1.05V64H158V63h7.23v1h-3.09Z"/><path class="cls-1" d="M171.22,72.39a4.62,4.62,0,0,1-4.68-4.74,4.67,4.67,0,0,1,4.71-4.77,4.62,4.62,0,0,1,4.68,4.74A4.67,4.67,0,0,1,171.22,72.39Zm0-8.55a3.62,3.62,0,0,0-3.6,3.78,3.66,3.66,0,0,0,3.63,3.82,3.62,3.62,0,0,0,3.6-3.79A3.67,3.67,0,0,0,171.22,63.84Z"/><path class="cls-1" d="M182.8,69.71h-.05l-3.36-4.91v7.44h-1V63h1.05l3.36,5,3.35-5h1.05v9.21h-1V64.78Z"/><path class="cls-1" d="M202.62,72.24h-1.3l-3.54-4.46-2,2v2.47h-1V63h1v5.5l5.29-5.5h1.34l-3.95,4Z"/><path class="cls-1" d="M206.15,63v9.21h-1V63Z"/><path class="cls-1" d="M212.59,72.24h-1.05V64h-3.09V63h7.23v1h-3.09Z"/><path class="cls-1" d="M221.46,72.39a4.76,4.76,0,0,1,0-9.51,4.78,4.78,0,0,1,3.59,1.46l-.71.76a4,4,0,0,0-2.89-1.26,3.6,3.6,0,0,0-3.56,3.78,3.64,3.64,0,0,0,3.56,3.82,4,4,0,0,0,3-1.33l.68.67A4.79,4.79,0,0,1,221.46,72.39Z"/><path class="cls-1" d="M228.52,68.1v4.14h-1V63h1v4.09h5.31V63h1v9.21h-1V68.1Z"/><path class="cls-1" d="M239.13,63v9.21h-1V63Z"/><path class="cls-1" d="M249.12,63h1v9.21h-.83l-5.94-7.55v7.55h-1V63h1l5.8,7.38Z"/></g></g></svg>