<svg xmlns="http://www.w3.org/2000/svg" viewBox="0 0 310 89.72"><defs><style>.cls-1{fill:#221e16;}</style></defs><g id="Layer_2" data-name="Layer 2"><g id="Layer_1-2" data-name="Layer 1"><path class="cls-1" d="M105.42,66.13c-19.46,0-32.52-15.25-32.52-33S86.15,0,105.6,0s32.52,15.25,32.52,33S124.87,66.13,105.42,66.13Zm0-59.46c-14.62,0-25,11.69-25,26.3S91,59.46,105.6,59.46s25-11.69,25-26.3S120,6.67,105.42,6.67Z"/><path class="cls-1" d="M211.07,65,192.53,40.19H174.26V65h-7.21V1.1h27.49c14.06,0,23.11,7.58,23.11,19.09,0,10.68-7.31,16.89-17.36,18.72L219.93,65ZM194,7.76H174.26V33.7H193.9c9.59,0,16.44-4.93,16.44-13.24C210.34,12.51,204.31,7.76,194,7.76Z"/><polygon class="cls-1" points="7.21 39.27 7.21 1.1 0 1.1 0 65.03 7.21 65.03 7.21 47.86 7.22 47.86 7.22 39.27 7.21 39.27"/><polygon class="cls-1" points="25.85 29.05 53.25 1.1 43.93 1.1 14.2 32.02 14.2 40.79 20.82 34.07 45.4 65.03 54.44 65.03 25.85 29.05"/><polygon class="cls-1" points="280.86 0.64 274.1 0.64 244.96 65.03 252.36 65.03 257.76 52.99 262.78 41.65 262.77 41.65 277.39 9.04 291.91 41.65 270.38 41.65 267.52 48.13 294.74 48.13 302.23 65.03 310 65.03 280.86 0.64"/><path class="cls-1" d="M175.47,81a2.76,2.76,0,0,1-1.8,2.66c1.35.41,2.44,1.19,2.44,2.77,0,2-1.65,3.13-4.14,3.13H166.9V78.12h4.86C174,78.12,175.47,79.23,175.47,81Zm-1.3.18c0-1.14-.9-1.87-2.52-1.87h-3.48v3.93h3.38C173.1,83.21,174.17,82.5,174.17,81.15Zm.64,5.17c0-1.26-1.05-2-3-2h-3.61v4H172C173.73,88.37,174.81,87.6,174.81,86.32Z"/><path class="cls-1" d="M183.7,89.53h-1.31V85l-4.74-6.89h1.57l3.84,5.7,3.88-5.7h1.5L183.7,85Z"/><path class="cls-1" d="M201,89.53h-1.31V79.31h-3.83V78.12h9v1.19H201Z"/><path class="cls-1" d="M212.2,89.72A5.9,5.9,0,1,1,218,83.81,5.79,5.79,0,0,1,212.2,89.72Zm0-10.6a4.48,4.48,0,0,0-4.46,4.69,4.54,4.54,0,0,0,4.49,4.72,4.48,4.48,0,0,0,4.47-4.69A4.53,4.53,0,0,0,212.2,79.12Z"/><path class="cls-1" d="M226.55,86.4h-.06l-4.16-6.1v9.23h-1.25V78.12h1.3l4.16,6.23,4.15-6.23H232V89.53h-1.28V80.29Z"/><path class="cls-1" d="M251.12,89.53H249.5L245.12,84l-2.43,2.46v3.07H241.4V78.12h1.29v6.81l6.55-6.81h1.66l-4.88,5Z"/><path class="cls-1" d="M255.49,78.12V89.53h-1.28V78.12Z"/><path class="cls-1" d="M263.48,89.53h-1.31V79.31h-3.83V78.12h9v1.19h-3.83Z"/><path class="cls-1" d="M274.47,89.72a5.9,5.9,0,0,1,0-11.79,6,6,0,0,1,4.45,1.8l-.88,1a5,5,0,0,0-3.59-1.56,4.71,4.71,0,0,0,0,9.41,5,5,0,0,0,3.69-1.64l.84.83A6,6,0,0,1,274.47,89.72Z"/><path class="cls-1" d="M283.22,84.39v5.14h-1.29V78.12h1.29v5.07h6.58V78.12h1.29V89.53H289.8V84.39Z"/><path class="cls-1" d="M296.36,78.12V89.53h-1.29V78.12Z"/><path class="cls-1" d="M308.74,78.12H310V89.53h-1l-7.36-9.36v9.36h-1.26V78.12h1.21l7.18,9.14Z"/></g></g></svg>