<svg xmlns="http://www.w3.org/2000/svg" viewBox="0 0 249.15 44.78"><defs><style>.cls-1{fill:#fff;}</style></defs><g id="Layer_2" data-name="Layer 2"><g id="Layer_1-2" data-name="Layer 1"><path class="cls-1" d="M106.2,2.7v9.66a.66.66,0,0,0,.13.44,1.19,1.19,0,0,0,.47.24v.29h-4V13a1.12,1.12,0,0,0,.47-.24.66.66,0,0,0,.13-.44V2.7h-4a.61.61,0,0,0-.43.13.93.93,0,0,0-.24.47h-.3V0h.3A.93.93,0,0,0,99,.47a.57.57,0,0,0,.42.13h10.69a.64.64,0,0,0,.44-.13.93.93,0,0,0,.24-.47h.3V3.3h-.3a.93.93,0,0,0-.24-.47.64.64,0,0,0-.44-.13Z"/><path class="cls-1" d="M124,7.78h-7.33v4.59a.63.63,0,0,0,.14.43.94.94,0,0,0,.46.24v.29h-4V13a1.19,1.19,0,0,0,.47-.24.71.71,0,0,0,.13-.43V1.57a.67.67,0,0,0-.13-.43,1.07,1.07,0,0,0-.47-.25V.6h4V.89a.86.86,0,0,0-.47.25.65.65,0,0,0-.13.43v4.1H124V1.57a.65.65,0,0,0-.13-.43.9.9,0,0,0-.47-.25V.6h4V.89a1,1,0,0,0-.46.25.61.61,0,0,0-.13.43v10.8a.65.65,0,0,0,.13.43,1.07,1.07,0,0,0,.46.24v.29h-4V13a.89.89,0,0,0,.46-.24.63.63,0,0,0,.14-.43Z"/><path class="cls-1" d="M133,7.75v3.49h8.18a.62.62,0,0,0,.43-.14,1,1,0,0,0,.25-.46h.29v3.29h-.29a1.07,1.07,0,0,0-.25-.47.67.67,0,0,0-.43-.13H129.65V13a1.19,1.19,0,0,0,.47-.24.7.7,0,0,0,.13-.44V1.58a.7.7,0,0,0-.13-.44.9.9,0,0,0-.47-.24V.6H141a.57.57,0,0,0,.43-.14.89.89,0,0,0,.24-.46h.3V3.3h-.3a.93.93,0,0,0-.24-.47A.61.61,0,0,0,141,2.7h-8v3h5.16a.67.67,0,0,0,.43-.13,1,1,0,0,0,.25-.47h.3V8.34h-.3a1,1,0,0,0-.25-.46.61.61,0,0,0-.43-.13Z"/><path class="cls-1" d="M15.17,26.68,13.29,30.4,13,30.21A1.36,1.36,0,0,0,13,30c0-.27-.22-.54-.67-.85a8.2,8.2,0,0,0-4.83-1.43A7.38,7.38,0,0,0,5.31,28a2.58,2.58,0,0,0-1.1.7,1.48,1.48,0,0,0-.43,1c0,.6.37,1,1.08,1.22a17.58,17.58,0,0,0,2.38.35l1.82.18a16.17,16.17,0,0,1,2.61.47,6.11,6.11,0,0,1,1.78.85A4,4,0,0,1,14.7,34.3a4.59,4.59,0,0,1-.63,4.94,5.72,5.72,0,0,1-3,1.74,11.91,11.91,0,0,1-3.27.43,14,14,0,0,1-6.2-1.5,3.18,3.18,0,0,0-.77-.3.88.88,0,0,0-.47.26L0,39.69l1.72-3.88.33.16v.15a1.27,1.27,0,0,0,.5,1,6.16,6.16,0,0,0,2.32,1.16,10.31,10.31,0,0,0,3,.49,6.09,6.09,0,0,0,2.62-.52,2.48,2.48,0,0,0,1-.77,1.66,1.66,0,0,0,.36-1A1.16,1.16,0,0,0,11,35.32a11.36,11.36,0,0,0-2.38-.43L6.8,34.71a21.11,21.11,0,0,1-2.54-.36,6.48,6.48,0,0,1-1.48-.54,3.82,3.82,0,0,1-1.65-1.56A4.21,4.21,0,0,1,.59,30.1,4.38,4.38,0,0,1,2,26.78a7.59,7.59,0,0,1,5.41-1.72,12.15,12.15,0,0,1,2.83.31,20.67,20.67,0,0,1,3.26,1.13,3.59,3.59,0,0,0,.82.27,1,1,0,0,0,.57-.27Z"/><path class="cls-1" d="M32.86,35.71l2.2,3.3-.3.21a.92.92,0,0,0-.54-.3,4.15,4.15,0,0,0-1.16.55A16.43,16.43,0,0,1,29.71,41a11.88,11.88,0,0,1-3.24.39,10,10,0,0,1-6.13-1.77,7.48,7.48,0,0,1-2.22-2.56,7.94,7.94,0,0,1-.93-3.85,7.84,7.84,0,0,1,1.67-5q2.52-3.18,7.62-3.18a11.63,11.63,0,0,1,3.22.39A16.41,16.41,0,0,1,33.06,27a4.15,4.15,0,0,0,1.16.55.92.92,0,0,0,.54-.3l.3.2-2.2,3.3-.31-.21c0-.12,0-.22,0-.31a.88.88,0,0,0-.29-.62,4.52,4.52,0,0,0-1-.71,8.68,8.68,0,0,0-4.34-1.15A6.49,6.49,0,0,0,22.6,29.1a5.46,5.46,0,0,0,0,8.28,6.49,6.49,0,0,0,4.31,1.35,8.69,8.69,0,0,0,4.34-1.16,5.27,5.27,0,0,0,1-.71.92.92,0,0,0,.29-.64c0-.08,0-.18,0-.29Z"/><path class="cls-1" d="M41.63,34.69v5.24a.81.81,0,0,0,.17.54,1.37,1.37,0,0,0,.57.3v.36H37.44v-.36a1.25,1.25,0,0,0,.59-.31.82.82,0,0,0,.15-.53V26.56A.84.84,0,0,0,38,26a1.25,1.25,0,0,0-.59-.3v-.37h9.89a16.41,16.41,0,0,1,2.86.2,5.27,5.27,0,0,1,1.85.73,3.79,3.79,0,0,1,1.37,1.64A5.37,5.37,0,0,1,53.84,30c0,2.57-1.44,4.08-4.3,4.52l3.06,4.36a9.57,9.57,0,0,0,1.19,1.48,1.52,1.52,0,0,0,.92.37v.36H49v-.36c.4-.07.59-.21.59-.42a3,3,0,0,0-.54-1l-3.2-4.65Zm0-2.6H47A14.72,14.72,0,0,0,48.62,32a2.64,2.64,0,0,0,.9-.29A1.78,1.78,0,0,0,50.39,30a1.79,1.79,0,0,0-.87-1.72,2.59,2.59,0,0,0-.89-.29A12.6,12.6,0,0,0,47,27.94H41.63Z"/><path class="cls-1" d="M69.88,37.11H62.7l-1.07,2.22a2,2,0,0,0-.21.73c0,.34.25.58.77.71v.36H57v-.36a1.48,1.48,0,0,0,.7-.33,2.92,2.92,0,0,0,.56-.9L64,27.39a2.21,2.21,0,0,0,.28-.92c0-.36-.22-.61-.67-.76v-.37h5.6v.37c-.45.13-.68.36-.68.68a1.65,1.65,0,0,0,.22.76l6,12.18a4.34,4.34,0,0,0,.67,1.06,1.51,1.51,0,0,0,.78.38v.36H70.43v-.36c.51-.09.77-.33.77-.72a1.84,1.84,0,0,0-.24-.72Zm-1-2.17-2.55-5.62-2.61,5.62Z"/><path class="cls-1" d="M81.5,30.31v9.61a.77.77,0,0,0,.16.54,1.16,1.16,0,0,0,.58.31v.36H77.59v-.36a1.16,1.16,0,0,0,.58-.31.78.78,0,0,0,.17-.54V26.54a.77.77,0,0,0-.17-.53,1.16,1.16,0,0,0-.58-.3v-.37H83v.37c-.34.09-.51.26-.51.53a1,1,0,0,0,.33.61l8.71,9.07V26.54a.77.77,0,0,0-.17-.53,1.08,1.08,0,0,0-.57-.3v-.37H95.4v.37a1.21,1.21,0,0,0-.58.3.76.76,0,0,0-.16.53V39.92a.77.77,0,0,0,.16.54,1.21,1.21,0,0,0,.58.31v.36h-5v-.36c.32-.08.48-.24.48-.51s-.19-.42-.57-.8Z"/><path class="cls-1" d="M151,26.68l-1.89,3.72-.32-.19a1.36,1.36,0,0,0,0-.18c0-.27-.22-.54-.67-.85a8.25,8.25,0,0,0-4.84-1.43,7.48,7.48,0,0,0-2.16.29,2.54,2.54,0,0,0-1.09.7,1.43,1.43,0,0,0-.43,1c0,.6.36,1,1.08,1.22a17.31,17.31,0,0,0,2.38.35l1.81.18a16.33,16.33,0,0,1,2.62.47,6.24,6.24,0,0,1,1.78.85,3.94,3.94,0,0,1,1.24,1.49,4.56,4.56,0,0,1-.62,4.94,5.76,5.76,0,0,1-3,1.74,11.86,11.86,0,0,1-3.27.43,13.86,13.86,0,0,1-6.19-1.5,3.52,3.52,0,0,0-.78-.3.88.88,0,0,0-.47.26l-.34-.18,1.71-3.88.34.16v.15a1.24,1.24,0,0,0,.5,1,6.16,6.16,0,0,0,2.32,1.16,10.31,10.31,0,0,0,3,.49,6.12,6.12,0,0,0,2.62-.52,2.64,2.64,0,0,0,1-.77,1.66,1.66,0,0,0,.36-1,1.16,1.16,0,0,0-.84-1.12,11.51,11.51,0,0,0-2.38-.43l-1.79-.18a21.18,21.18,0,0,1-2.53-.36,6.15,6.15,0,0,1-1.48-.54A3.9,3.9,0,0,1,137,32.25a4.21,4.21,0,0,1-.54-2.15,4.39,4.39,0,0,1,1.38-3.32,7.59,7.59,0,0,1,5.41-1.72,12,12,0,0,1,2.82.31,20.67,20.67,0,0,1,3.26,1.13,3.6,3.6,0,0,0,.83.27.92.92,0,0,0,.56-.27Z"/><path class="cls-1" d="M168.72,35.71l2.2,3.3-.31.21a.88.88,0,0,0-.53-.3,4,4,0,0,0-1.17.55A16,16,0,0,1,165.56,41a11.75,11.75,0,0,1-3.23.39,10,10,0,0,1-6.13-1.77A7.48,7.48,0,0,1,154,37.08a8,8,0,0,1-.94-3.85,7.8,7.8,0,0,1,1.68-5q2.52-3.18,7.62-3.18a11.68,11.68,0,0,1,3.22.39A16.37,16.37,0,0,1,168.91,27a4,4,0,0,0,1.17.55.88.88,0,0,0,.53-.3l.31.2-2.2,3.3-.32-.21a1.89,1.89,0,0,0,0-.31.88.88,0,0,0-.29-.62,4.76,4.76,0,0,0-1-.71,8.7,8.7,0,0,0-4.34-1.15,6.47,6.47,0,0,0-4.31,1.35,5.46,5.46,0,0,0,0,8.28,6.47,6.47,0,0,0,4.31,1.35,8.71,8.71,0,0,0,4.34-1.16,5.61,5.61,0,0,0,1-.71.92.92,0,0,0,.29-.64,1.68,1.68,0,0,0,0-.29Z"/><path class="cls-1" d="M184.56,37.11h-7.18l-1.07,2.22a2,2,0,0,0-.21.73c0,.34.25.58.77.71v.36h-5.23v-.36a1.52,1.52,0,0,0,.7-.33,3.12,3.12,0,0,0,.56-.9l5.81-12.15a2.37,2.37,0,0,0,.28-.92c0-.36-.22-.61-.67-.76v-.37h5.6v.37c-.46.13-.68.36-.68.68a1.65,1.65,0,0,0,.22.76l6,12.18a4.05,4.05,0,0,0,.67,1.06,1.55,1.55,0,0,0,.78.38v.36h-5.82v-.36c.51-.09.76-.33.76-.72a2,2,0,0,0-.23-.72Zm-1-2.17L181,29.32l-2.6,5.62Z"/><path class="cls-1" d="M196.47,38.53h9.7a.77.77,0,0,0,.54-.16,1.16,1.16,0,0,0,.3-.58h.37v4.09H207a1.12,1.12,0,0,0-.3-.58.78.78,0,0,0-.54-.17h-13.9v-.37a1,1,0,0,0,.58-.3.78.78,0,0,0,.17-.54V26.56a.79.79,0,0,0-.17-.55,1.12,1.12,0,0,0-.58-.3v-.37h4.94v.37a1.16,1.16,0,0,0-.58.29.82.82,0,0,0-.16.55Z"/><path class="cls-1" d="M213.24,38.53h9.7a.77.77,0,0,0,.54-.16,1.09,1.09,0,0,0,.3-.58h.38v4.09h-.38a1,1,0,0,0-.3-.58.78.78,0,0,0-.54-.17H209.05v-.37a1.09,1.09,0,0,0,.58-.3.83.83,0,0,0,.16-.54V26.56a.84.84,0,0,0-.16-.55,1.16,1.16,0,0,0-.58-.3v-.37H214v.37a1.16,1.16,0,0,0-.58.29.88.88,0,0,0-.16.55Z"/><path class="cls-1" d="M226.56,39.92V26.54a.76.76,0,0,0-.16-.53,1.16,1.16,0,0,0-.58-.3v-.37h4.94v.37a1.25,1.25,0,0,0-.59.29.87.87,0,0,0-.16.54V39.92a.82.82,0,0,0,.17.55,1.17,1.17,0,0,0,.58.29v.37h-4.94v-.37a1.09,1.09,0,0,0,.58-.3.77.77,0,0,0,.16-.54"/><path class="cls-1" d="M237.79,34.2v4.33h10.15a.73.73,0,0,0,.54-.17,1.15,1.15,0,0,0,.3-.57h.37v4.09h-.37a1.24,1.24,0,0,0-.3-.58.79.79,0,0,0-.54-.17H233.59v-.37a1.09,1.09,0,0,0,.58-.3.77.77,0,0,0,.16-.54V26.55a.79.79,0,0,0-.16-.54,1.16,1.16,0,0,0-.58-.3v-.37h14.08a.72.72,0,0,0,.53-.17,1.24,1.24,0,0,0,.3-.58h.37v4.09h-.37a1.25,1.25,0,0,0-.3-.57.77.77,0,0,0-.53-.17h-9.88v3.74h6.41a.82.82,0,0,0,.53-.15,1.15,1.15,0,0,0,.3-.59h.37v4H245a1.17,1.17,0,0,0-.3-.57.77.77,0,0,0-.53-.17Z"/><path class="cls-1" d="M117.49,24.21c0,.18-.21.28-.36.28-.32,0-.43-.43-.53-.64-.86-1.86-2.73-3.77-4.91-3.77a2.87,2.87,0,0,0-3,2.91c0,2.4,5.31,8.06,13.05,15.23a5.41,5.41,0,0,0,1-3.8c0-4.19-3.37-2.76-3.37-3.91,0-.39.53-.32.82-.32,1.33,0,2.58.14,3.12.14s1.08-.14,2.3-.14c.32,0,.5.07.5.43,0,.57-1.37.18-1.55,1.76A16.81,16.81,0,0,1,122.94,39c1.36,1.08,4.73,4.55,6.34,4.55a9.39,9.39,0,0,0,1.33-.17.27.27,0,0,1,.29.28c0,.61-1.8,1.15-3,1.15-2.69,0-4.66-2.05-6.63-3.62a12.23,12.23,0,0,1-8.81,3.62c-5.27,0-9.9-3.48-9.9-9.07,0-3.84,1.9-6.77,5.74-7.6A6.66,6.66,0,0,1,106.67,24c0-3.27,2.9-4.88,5.81-4.88a8.66,8.66,0,0,1,3.83,1c.18,0,.32-.32.65-.32.5,0,.42.68.42,1Zm2.62,16.16C112.44,33.81,109.71,29,108.43,29c-2.26,0-3.91,2.79-3.91,4.87,0,4.77,4.55,8.79,9.18,8.79a10,10,0,0,0,6.41-2.3"/></g></g></svg>