<svg xmlns="http://www.w3.org/2000/svg" viewBox="0 0 287.13 119.71"><defs><style>.cls-1{fill:none;stroke:#fff;stroke-miterlimit:10;stroke-width:0.5px;}.cls-2{fill:#fff;}</style></defs><g id="Layer_2" data-name="Layer 2"><g id="Layer_2-2" data-name="Layer 2"><line class="cls-1" x1="0.25" x2="0.25" y2="119.71"/><line class="cls-1" x1="286.88" x2="286.88" y2="119.71"/><g id="Layer_2-3" data-name="Layer 2"><g id="Layer_1-2" data-name="Layer 1-2"><path class="cls-2" d="M126.61,24.56H113.17v2.52h5.6V41.64h2.52V27.08h5.6l-.28-2.52h0"/><path class="cls-2" d="M144.25,24.56H142v7.28h-9V24.56h-2.52V41.92h2.52V34.64h9v7.28h2.52l-.28-17.36h0"/><path class="cls-2" d="M161.33,24.56h-12V41.92h12.32V39.4h-9.8V34.64h7.56V32.12h-7.56V27.36h9.8l-.28-2.8h0"/><polyline class="cls-2" points="76.21 55.64 71.73 55.64 71.73 90.64 76.49 90.64 76.49 55.64 76.21 55.64"/><path class="cls-2" d="M111.21,55.64H84.33V60.4h11.2v30h4.76v-30h11.2l-.28-4.76h0"/><path class="cls-2" d="M120.45,60.12h0a18.23,18.23,0,0,0,25.76,25.76l.28-.28-3.36-3.36-.28.28a13.65,13.65,0,0,1-19.54-19,13.46,13.46,0,0,1,19-.51c.17.17.34.33.5.51h0l.28.28,3.36-3.36-.28-.28a18.42,18.42,0,0,0-25.76,0"/><path class="cls-2" d="M183.45,55.64H179V70.76H160.49V55.64h-4.76V90.36h4.76V75.24H179V90.36h4.76l-.28-34.72h0"/><path class="cls-2" d="M52.13,87.56c-.84-1.12-9.8-12-10.92-13.72l-2.52,1.68V90.08h-4.2V55.64H39V70.48L58.29,55.64l2.52,3.08L44.85,71c1.12,1.4,7.84,10.64,9,11.76l1.12,1.4A6.56,6.56,0,0,0,58,86.72a4.26,4.26,0,0,0,2.52-.56.4.4,0,0,1,.56,0h0l1.4,2.24h0s.56.56,0,.84a8.49,8.49,0,0,1-3.64,1.4,8.93,8.93,0,0,1-6.72-3.08c-.84-1.12-9.52-12.32-10.92-13.72l-2.52,1.68V90.08h-4.2V55.64H39V70.48L58.29,55.64l2.52,3.08L44.85,71c1.12,1.4,7.84,10.64,9,11.76l1.12,1.4A6.56,6.56,0,0,0,58,86.72"/><polyline class="cls-2" points="198.29 55.64 193.81 55.64 193.81 90.64 198.57 90.64 198.57 55.64 198.29 55.64"/><path class="cls-2" d="M232.45,87.84,233.57,89a6.76,6.76,0,0,0,3.08,1.68c2.8,0,3.08-2.8,3.08-4.48V55.64H235V83.08c-2-2.24-9.24-11.48-9.24-11.48l-12.88-16h-3.92V90.36h4.76V64l6.16,7.56,12.6,16.24m2.24-32.2V83.08"/><path class="cls-2" d="M252.89,55.08a5,5,0,0,0-5,5v.34a5.21,5.21,0,0,0,4.76,5.32h.28a5.32,5.32,0,0,0,5.32-5.32h0a5.14,5.14,0,0,0-5-5.32h-.34m0,9.24a4.37,4.37,0,1,1,3.92-4.78v.58a3.75,3.75,0,0,1-3.27,4.17A3.5,3.5,0,0,1,252.89,64.32Z"/><path class="cls-2" d="M254.85,59.28c0-1.12-.56-1.4-1.68-1.4h-2v4.76h.84V60.4h.56l1.12,2.24h.84l-1.4-2.24a1.92,1.92,0,0,0,1.68-1.12h0m-2.8.56v-1.4h.84c.56,0,1.12,0,1.12.56s-.56.84-1.12.84Z"/></g></g></g></g></svg>